<mxfile host="drawio-plugin" modified="2024-01-15T18:27:22.843Z" agent="5.0 (Macintosh; Intel Mac OS X 10_15_7) AppleWebKit/537.36 (KHTML, like Gecko) Chrome/111.0.0.0 Safari/537.36" etag="zVLa5IalWynmGP_QGqDB" version="20.5.3" type="embed"><diagram id="23iRSUPoRavnBvh4doch" name="Page-1"><mxGraphModel dx="1465" dy="1174" grid="1" gridSize="10" guides="1" tooltips="1" connect="1" arrows="1" fold="1" page="1" pageScale="1" pageWidth="827" pageHeight="1169" math="0" shadow="0"><root><mxCell id="0"/><mxCell id="1" parent="0"/><mxCell id="3" value="" style="rounded=0;whiteSpace=wrap;html=1;" vertex="1" parent="1"><mxGeometry x="190" y="130" width="120" height="360" as="geometry"/></mxCell><mxCell id="4" value="SidePanel" style="text;html=1;strokeColor=none;fillColor=none;align=center;verticalAlign=middle;whiteSpace=wrap;rounded=0;" vertex="1" parent="1"><mxGeometry x="220" y="80" width="60" height="30" as="geometry"/></mxCell><mxCell id="6" value="" style="rounded=0;whiteSpace=wrap;html=1;" vertex="1" parent="1"><mxGeometry x="50" y="130" width="120" height="360" as="geometry"/></mxCell><mxCell id="7" value="Welcome Page (?)" style="text;html=1;strokeColor=none;fillColor=none;align=center;verticalAlign=middle;whiteSpace=wrap;rounded=0;" vertex="1" parent="1"><mxGeometry x="80" y="80" width="60" height="30" as="geometry"/></mxCell><mxCell id="10" style="edgeStyle=orthogonalEdgeStyle;rounded=0;orthogonalLoop=1;jettySize=auto;html=1;entryX=0;entryY=0.5;entryDx=0;entryDy=0;" edge="1" parent="1" source="8" target="9"><mxGeometry relative="1" as="geometry"><Array as="points"><mxPoint x="280" y="570"/></Array></mxGeometry></mxCell><mxCell id="31" style="edgeStyle=orthogonalEdgeStyle;rounded=0;orthogonalLoop=1;jettySize=auto;html=1;entryX=0.75;entryY=0;entryDx=0;entryDy=0;" edge="1" parent="1" source="8" target="33"><mxGeometry relative="1" as="geometry"><mxPoint x="254.01" y="548" as="targetPoint"/></mxGeometry></mxCell><mxCell id="8" value="Login" style="rounded=1;whiteSpace=wrap;html=1;" vertex="1" parent="1"><mxGeometry x="255" y="466" width="50" height="20" as="geometry"/></mxCell><mxCell id="9" value="Firebase" style="shape=process;whiteSpace=wrap;html=1;backgroundOutline=1;" vertex="1" parent="1"><mxGeometry x="440" y="540" width="120" height="60" as="geometry"/></mxCell><mxCell id="11" value="sendSignInLinkToEmail" style="text;html=1;strokeColor=none;fillColor=none;align=center;verticalAlign=middle;whiteSpace=wrap;rounded=0;" vertex="1" parent="1"><mxGeometry x="280" y="540" width="150" height="30" as="geometry"/></mxCell><mxCell id="12" value="" style="rounded=0;whiteSpace=wrap;html=1;" vertex="1" parent="1"><mxGeometry x="321" y="130" width="380" height="360" as="geometry"/></mxCell><mxCell id="13" value="Main" style="text;html=1;strokeColor=none;fillColor=none;align=center;verticalAlign=middle;whiteSpace=wrap;rounded=0;" vertex="1" parent="1"><mxGeometry x="480" y="80" width="60" height="30" as="geometry"/></mxCell><mxCell id="15" value="" style="html=1;verticalLabelPosition=bottom;align=center;labelBackgroundColor=#ffffff;verticalAlign=top;strokeWidth=2;strokeColor=#0080F0;shadow=0;dashed=0;shape=mxgraph.ios7.icons.mail;" vertex="1" parent="1"><mxGeometry x="460" y="510" width="30" height="16.5" as="geometry"/></mxCell><mxCell id="16" value="click on Link, redirecting to&amp;nbsp;&lt;br&gt;tabsets" style="text;html=1;strokeColor=none;fillColor=none;align=center;verticalAlign=middle;whiteSpace=wrap;rounded=0;" vertex="1" parent="1"><mxGeometry x="520" y="503.25" width="210" height="30" as="geometry"/></mxCell><mxCell id="20" style="edgeStyle=orthogonalEdgeStyle;rounded=0;orthogonalLoop=1;jettySize=auto;html=1;entryX=0.5;entryY=1;entryDx=0;entryDy=0;" edge="1" parent="1" source="17" target="19"><mxGeometry relative="1" as="geometry"/></mxCell><mxCell id="17" value="&lt;b&gt;ChromeListener&lt;/b&gt;&lt;br&gt;checkOriginForEmailLink" style="rounded=0;whiteSpace=wrap;html=1;" vertex="1" parent="1"><mxGeometry x="385" y="410" width="230" height="40" as="geometry"/></mxCell><mxCell id="14" style="edgeStyle=orthogonalEdgeStyle;rounded=0;orthogonalLoop=1;jettySize=auto;html=1;exitX=0.5;exitY=0;exitDx=0;exitDy=0;" edge="1" parent="1" source="9" target="17"><mxGeometry relative="1" as="geometry"/></mxCell><mxCell id="19" value="&lt;b&gt;AuthStore&lt;/b&gt;&lt;br&gt;setAuthRequest(authRequest)" style="rounded=0;whiteSpace=wrap;html=1;" vertex="1" parent="1"><mxGeometry x="385" y="330" width="230" height="40" as="geometry"/></mxCell><mxCell id="23" style="edgeStyle=orthogonalEdgeStyle;rounded=0;orthogonalLoop=1;jettySize=auto;html=1;entryX=0;entryY=0.5;entryDx=0;entryDy=0;dashed=1;" edge="1" parent="1" source="21" target="19"><mxGeometry relative="1" as="geometry"/></mxCell><mxCell id="26" style="edgeStyle=orthogonalEdgeStyle;rounded=0;orthogonalLoop=1;jettySize=auto;html=1;entryX=0.5;entryY=1;entryDx=0;entryDy=0;" edge="1" parent="1" source="21" target="24"><mxGeometry relative="1" as="geometry"/></mxCell><mxCell id="21" value="Watch &lt;br&gt;AuthRequest" style="shape=hexagon;perimeter=hexagonPerimeter2;whiteSpace=wrap;html=1;fixedSize=1;size=10;" vertex="1" parent="1"><mxGeometry x="200" y="410" width="100" height="40" as="geometry"/></mxCell><mxCell id="22" value="Watch &lt;br&gt;AuthRequest" style="shape=hexagon;perimeter=hexagonPerimeter2;whiteSpace=wrap;html=1;fixedSize=1;size=10;" vertex="1" parent="1"><mxGeometry x="60" y="410" width="100" height="40" as="geometry"/></mxCell><mxCell id="28" style="edgeStyle=orthogonalEdgeStyle;rounded=0;orthogonalLoop=1;jettySize=auto;html=1;" edge="1" parent="1" source="24" target="27"><mxGeometry relative="1" as="geometry"/></mxCell><mxCell id="24" value="reload page with&lt;br&gt;authRequest Params" style="rounded=1;whiteSpace=wrap;html=1;" vertex="1" parent="1"><mxGeometry x="205" y="330" width="90" height="65" as="geometry"/></mxCell><mxCell id="30" style="edgeStyle=orthogonalEdgeStyle;rounded=0;orthogonalLoop=1;jettySize=auto;html=1;entryX=0.5;entryY=1;entryDx=0;entryDy=0;" edge="1" parent="1" source="27" target="29"><mxGeometry relative="1" as="geometry"/></mxCell><mxCell id="32" style="edgeStyle=orthogonalEdgeStyle;rounded=0;orthogonalLoop=1;jettySize=auto;html=1;entryX=0.25;entryY=0;entryDx=0;entryDy=0;" edge="1" parent="1" source="27" target="33"><mxGeometry relative="1" as="geometry"><mxPoint x="180" y="533" as="targetPoint"/><Array as="points"><mxPoint x="180" y="284"/></Array></mxGeometry></mxCell><mxCell id="27" value="&lt;b&gt;App.vue&lt;/b&gt;&lt;br&gt;is SignIn Link?&lt;br&gt;authStore: save User" style="rounded=0;whiteSpace=wrap;html=1;" vertex="1" parent="1"><mxGeometry x="195" y="253" width="110" height="62" as="geometry"/></mxCell><mxCell id="36" style="edgeStyle=orthogonalEdgeStyle;rounded=0;orthogonalLoop=1;jettySize=auto;html=1;entryX=0.5;entryY=1;entryDx=0;entryDy=0;entryPerimeter=0;" edge="1" parent="1" source="29" target="35"><mxGeometry relative="1" as="geometry"/></mxCell><mxCell id="29" value="Watch &lt;br&gt;User" style="shape=hexagon;perimeter=hexagonPerimeter2;whiteSpace=wrap;html=1;fixedSize=1;size=10;" vertex="1" parent="1"><mxGeometry x="200" y="193" width="100" height="40" as="geometry"/></mxCell><mxCell id="33" value="&lt;span style=&quot;&quot;&gt;remember email&lt;/span&gt;" style="whiteSpace=wrap;html=1;" vertex="1" parent="1"><mxGeometry x="150" y="550" width="120" height="30" as="geometry"/></mxCell><mxCell id="34" value="check" style="text;html=1;strokeColor=none;fillColor=none;align=center;verticalAlign=middle;whiteSpace=wrap;rounded=0;" vertex="1" parent="1"><mxGeometry x="130" y="503.25" width="60" height="30" as="geometry"/></mxCell><mxCell id="35" value="Account" style="strokeWidth=2;html=1;shape=mxgraph.flowchart.database;whiteSpace=wrap;" vertex="1" parent="1"><mxGeometry x="207" y="133" width="85" height="40" as="geometry"/></mxCell></root></mxGraphModel></diagram></mxfile>